<svg width="1132" height="1334" xmlns="http://www.w3.org/2000/svg" xmlns:xlink="http://www.w3.org/1999/xlink" overflow="hidden"><defs><clipPath id="clip0"><rect x="1634" y="702" width="1132" height="1334"/></clipPath><clipPath id="clip1"><rect x="1892" y="836" width="653" height="865"/></clipPath><clipPath id="clip2"><rect x="1892" y="836" width="653" height="865"/></clipPath><clipPath id="clip3"><rect x="1892" y="836" width="653" height="865"/></clipPath></defs><g clip-path="url(#clip0)" transform="translate(-1634 -702)"><path d="M2567.02 1603.52C2364.24 1806.69 2035.31 1806.85 1832.33 1603.87 1629.36 1400.9 1629.2 1071.65 1831.98 868.481 1850.03 850.397 1869.39 833.67 1889.89 818.436Z" stroke="#FFFFFF" stroke-width="27.5" stroke-miterlimit="8" fill="#FFD100" fill-rule="evenodd"/><path d="M1680 1236C1680 948.812 1912.59 716 2199.5 716 2486.41 716 2719 948.812 2719 1236 2719 1523.19 2486.41 1756 2199.5 1756 1912.59 1756 1680 1523.19 1680 1236Z" stroke="#2A4267" stroke-width="27.5" stroke-miterlimit="8" fill="none" fill-rule="evenodd"/><rect x="2603" y="988" width="133" height="511" fill="#FFFFFF"/><g clip-path="url(#clip1)"><g clip-path="url(#clip2)"><g clip-path="url(#clip3)"><path d="M555.558 222.767C547.408 195.6 529.75 172.508 505.3 158.246 505.3 156.208 505.3 154.171 505.3 152.133 505.979 105.95 467.946 67.9167 421.083 67.9167 406.821 67.9167 393.917 71.3125 382.371 77.425 366.75 55.0125 341.621 40.75 312.417 40.75 275.063 40.75 243.142 65.2 231.596 99.1583 219.371 92.3667 205.108 88.2917 190.167 88.2917 143.304 88.2917 105.271 126.325 105.271 173.188 105.271 190.846 110.704 207.146 120.213 220.729 76.0667 232.275 44.1458 271.667 44.1458 319.208 44.1458 375.579 89.65 421.083 146.021 421.083 154.171 421.083 162.321 419.725 170.471 418.367 203.071 433.308 275.063 476.775 278.458 526.354L275.742 590.875C275.742 594.271 274.383 597.667 271.667 600.383L265.554 606.496C261.479 611.25 264.196 618.042 270.308 618.042L345.017 618.042C350.45 618.042 353.167 612.608 351.129 607.854 351.129 607.854 347.733 601.063 345.696 599.025 343.658 596.308 341.621 593.592 341.621 589.517L338.904 507.338C338.904 506.658 339.583 505.979 339.583 505.979 345.017 481.529 377.617 465.229 412.254 448.25 446.892 431.271 487.642 410.896 500.546 375.579 508.696 378.296 517.525 380.333 527.033 380.333 571.858 380.333 608.533 343.658 608.533 298.833 607.854 264.196 586.121 234.313 555.558 222.767ZM311.058 429.913C309.021 412.933 304.946 392.558 296.796 372.863 313.775 370.825 329.396 365.392 342.979 357.242 328.717 381.692 317.85 408.179 311.058 429.913ZM208.504 399.35C220.729 389.842 230.917 376.938 238.388 362.675 244.5 365.392 250.613 368.108 257.404 369.467 275.063 398.671 278.458 431.95 278.458 453.004 256.725 429.913 228.879 411.575 208.504 399.35ZM396.633 417.688C376.938 427.196 356.563 437.383 340.263 449.608 349.092 421.763 364.713 379.654 389.163 349.092 406.142 359.958 426.517 366.071 448.25 366.071 455.042 366.071 461.154 365.392 467.267 364.033 459.796 385.088 433.308 399.35 396.633 417.688Z" stroke="#2A4267" stroke-width="2.29982" fill="#548235" transform="matrix(1 0 0 1.32669 1892 836)"/></g></g></g><text fill="#2A4267" font-family="Arial,Arial_MSFontService,sans-serif" font-weight="400" font-size="156" transform="matrix(1 0 0 1 1802.4 1907)">VIBRANCE</text></g></svg>